<svg width="82" height="82" viewBox="0 0 82 82" fill="none" xmlns="http://www.w3.org/2000/svg">
<path d="M68.3333 13.6667H13.6666C9.90831 13.6667 6.83331 16.7417 6.83331 20.5V61.5C6.83331 65.2583 9.90831 68.3333 13.6666 68.3333H68.3333C72.0916 68.3333 75.1666 65.2583 75.1666 61.5V20.5C75.1666 16.7417 72.0916 13.6667 68.3333 13.6667ZM68.3333 61.5H13.6666V20.5H68.3333V61.5ZM13.6666 0H68.3333V6.83333H13.6666V0ZM13.6666 75.1667H68.3333V82H13.6666V75.1667ZM41 41C45.715 41 49.5416 37.1733 49.5416 32.4583C49.5416 27.7433 45.715 23.9167 41 23.9167C36.285 23.9167 32.4583 27.7433 32.4583 32.4583C32.4583 37.1733 36.285 41 41 41ZM41 29.0417C42.8791 29.0417 44.4166 30.5792 44.4166 32.4583C44.4166 34.3375 42.8791 35.875 41 35.875C39.1208 35.875 37.5833 34.3375 37.5833 32.4583C37.5833 30.5792 39.1208 29.0417 41 29.0417ZM58.0833 54.6325C58.0833 47.4917 46.7741 44.4167 41 44.4167C35.2258 44.4167 23.9166 47.4917 23.9166 54.6325V58.0833H58.0833V54.6325ZM30.1008 52.9583C32.185 51.1817 37.0366 49.5417 41 49.5417C44.9975 49.5417 49.8491 51.1817 51.9333 52.9583H30.1008Z" fill="#38B000"/>
</svg>
