<svg width="82" height="82" viewBox="0 0 82 82" fill="none" xmlns="http://www.w3.org/2000/svg">
<path d="M62.5137 49.25C62.5137 40.7083 48.9495 28.25 42.0137 28.25C35.0778 28.25 21.5137 40.7083 21.5137 49.25V58.25H62.5137V49.25ZM29.987 51.4167C29.987 41.25 37.6062 37.25 42.0137 37.25C46.4212 37.25 54.0403 43 54.0403 51.4167H29.987ZM65.9303 7H18.097C14.3045 7 11.2637 10.075 11.2637 13.8333V61.6667C11.2637 65.425 14.3045 68.5 18.097 68.5H65.9303C69.6887 68.5 72.7637 65.425 72.7637 61.6667V13.8333C72.7637 10.075 69.6887 7 65.9303 7ZM65.9303 61.6667H18.097V13.8333H65.9303V61.6667Z" fill="#38B000"/>
<path d="M40 16L38 31H45L43 16H40Z" fill="#38B000"/>
</svg>
