<svg width="82" height="82" viewBox="0 0 82 82" fill="none" xmlns="http://www.w3.org/2000/svg">
<path d="M51.25 10.25H17.0833C13.325 10.25 10.2842 13.325 10.2842 17.0833L10.25 64.9167C10.25 68.675 13.2908 71.75 17.0492 71.75H64.9167C68.675 71.75 71.75 68.675 71.75 64.9167V30.75L51.25 10.25ZM17.0833 64.9167V17.0833H47.8333V34.1667H64.9167V64.9167H17.0833ZM30.75 27.3333C30.75 29.2125 29.2125 30.75 27.3333 30.75C25.4542 30.75 23.9167 29.2125 23.9167 27.3333C23.9167 25.4542 25.4542 23.9167 27.3333 23.9167C29.2125 23.9167 30.75 25.4542 30.75 27.3333ZM30.75 41C30.75 42.8792 29.2125 44.4167 27.3333 44.4167C25.4542 44.4167 23.9167 42.8792 23.9167 41C23.9167 39.1208 25.4542 37.5833 27.3333 37.5833C29.2125 37.5833 30.75 39.1208 30.75 41ZM30.75 54.6667C30.75 56.5458 29.2125 58.0833 27.3333 58.0833C25.4542 58.0833 23.9167 56.5458 23.9167 54.6667C23.9167 52.7875 25.4542 51.25 27.3333 51.25C29.2125 51.25 30.75 52.7875 30.75 54.6667Z" fill="#38B000"/>
</svg>
