<svg width="45" height="45" viewBox="0 0 45 45" fill="none" xmlns="http://www.w3.org/2000/svg">
<path d="M28.125 5.625H9.375C7.3125 5.625 5.64375 7.3125 5.64375 9.375L5.625 35.625C5.625 37.6875 7.29375 39.375 9.35625 39.375H35.625C37.6875 39.375 39.375 37.6875 39.375 35.625V16.875L28.125 5.625ZM9.375 35.625V9.375H26.25V18.75H35.625V35.625H9.375ZM16.875 15C16.875 16.0312 16.0312 16.875 15 16.875C13.9688 16.875 13.125 16.0312 13.125 15C13.125 13.9688 13.9688 13.125 15 13.125C16.0312 13.125 16.875 13.9688 16.875 15ZM16.875 22.5C16.875 23.5312 16.0312 24.375 15 24.375C13.9688 24.375 13.125 23.5312 13.125 22.5C13.125 21.4688 13.9688 20.625 15 20.625C16.0312 20.625 16.875 21.4688 16.875 22.5ZM16.875 30C16.875 31.0312 16.0312 31.875 15 31.875C13.9688 31.875 13.125 31.0312 13.125 30C13.125 28.9688 13.9688 28.125 15 28.125C16.0312 28.125 16.875 28.9688 16.875 30Z" fill="#38B000"/>
</svg>
