<svg width="58" height="58" viewBox="0 0 58 58" fill="none" xmlns="http://www.w3.org/2000/svg">
<path d="M57.3432 39.0409C56.7072 38.5917 55.8839 38.6675 55.3407 39.2252C53.3889 41.2291 51.1555 42.8841 48.6888 44.1591V41.5819C48.6888 41.1129 48.3087 40.7327 47.8397 40.7327C47.3706 40.7327 46.9906 41.1129 46.9906 41.5819V51.0919C45.7801 51.9407 44.5025 52.6966 43.1771 53.3489V35.9149H46.9906V37.6193C46.9906 38.0883 47.3706 38.4685 47.8397 38.4685C48.3087 38.4685 48.6888 38.0883 48.6888 37.6193C48.6888 36.8956 48.6888 31.3866 48.6888 30.6791C50.1304 28.7221 49.0884 26.5805 47.1063 25.5684C46.2604 25.1366 46.158 24.7792 45.933 24.5774V22.9072C45.933 22.4383 45.5529 22.0581 45.0839 22.0581C44.6149 22.0581 44.2348 22.4383 44.2348 22.9072V24.5772C44.0099 24.7789 43.9071 25.1364 43.0615 25.5683C41.0677 26.5862 40.0419 28.7279 41.4789 30.6789V32.2129H37.8069V27.8436C39.4088 26.1474 39.6888 23.5804 38.442 21.5939C37.4565 20.0236 35.9561 18.7969 33.9823 17.948C32.6099 17.3577 31.584 16.6606 30.9332 15.8765C30.7611 15.6689 30.5408 15.516 30.2966 15.4263V13.8143C31.175 13.6739 31.9417 13.1623 32.4078 12.4004C32.6526 12.0004 32.5267 11.4777 32.1267 11.233C31.7269 10.9883 31.2041 11.1141 30.9592 11.5141C30.748 11.8594 30.397 12.0886 29.9966 12.1431C29.6432 12.1911 29.2903 12.0985 29.0054 11.8819C28.7206 11.6653 28.5375 11.3508 28.4892 10.9963C28.4411 10.6421 28.5338 10.2902 28.7501 10.0057C29.0339 9.63233 28.9612 9.09966 28.588 8.81583C28.2147 8.53211 27.6819 8.60468 27.3981 8.97795C26.9074 9.62339 26.6974 10.4213 26.8064 11.2248C26.9155 12.0287 27.3314 12.7421 27.977 13.2334C28.1716 13.3813 28.3801 13.503 28.5981 13.5989V15.4261C28.3541 15.5158 28.1337 15.6686 27.9618 15.876C27.3108 16.6604 26.2848 17.3574 24.9124 17.9477C22.9387 18.7967 21.4382 20.0234 20.4527 21.5937C19.206 23.58 19.4859 26.1471 21.0878 27.8434V32.2127H17.4157V30.6786C18.0309 29.8436 18.3746 28.5745 17.786 27.4616C16.8137 25.6227 15.4903 25.7121 14.8311 24.7698C14.7811 24.6982 14.7233 24.6338 14.6599 24.577V22.9069C14.6599 22.4379 14.2799 22.0578 13.8108 22.0578C13.3418 22.0578 12.9617 22.4379 12.9617 22.9069V24.5769C12.7364 24.779 12.6342 25.1362 11.7884 25.568C11.6496 25.6389 11.5181 25.7166 11.3901 25.7975C11.1192 24.2824 10.9815 22.7394 10.9815 21.1928C10.9815 20.6053 11.0032 19.9936 11.0462 19.3747C11.0788 18.9069 10.726 18.5012 10.2582 18.4687C9.78865 18.4365 9.38459 18.7891 9.3521 19.2569C9.30647 19.9149 9.28326 20.5662 9.28326 21.1928C9.28326 23.2363 9.50777 25.2745 9.95089 27.2573C9.28066 28.3737 9.44358 29.643 10.206 30.6792V47.914C-3.33293 34.4374 -0.325156 11.3787 16.924 2.15586C13.4461 5.78835 11.0414 10.2677 9.94727 15.1689C9.84503 15.6265 10.1333 16.0804 10.591 16.1826C11.0486 16.2849 11.5025 15.9965 11.6047 15.5389C12.6973 10.6444 15.1838 6.19785 18.7955 2.68004C20.0534 1.45495 18.6171 -0.589937 17.0436 0.185583C12.0171 2.66363 7.76947 6.47885 4.76034 11.2186C-8.03021 31.364 6.43761 57.9881 30.4973 57.9872C42.1146 57.9872 52.7033 51.3863 57.8352 40.9771C58.1771 40.2833 57.9748 39.487 57.3432 39.0409ZM15.718 52.2069C14.376 51.4018 13.0987 50.4869 11.9047 49.475V35.9149H15.718V52.2069ZM15.718 34.2167H11.9047V31.2262H15.718V34.2167ZM16.1455 29.528H11.4779C11.255 29.1543 11.1348 28.6393 11.3374 28.256C11.962 27.0728 12.8239 27.1942 13.8114 26.1886C14.7972 27.1925 15.6591 27.0716 16.2854 28.256C16.4819 28.6276 16.3785 29.1373 16.1455 29.528ZM21.0884 54.7139C19.8308 54.2787 18.6011 53.7548 17.4163 53.1492C17.4163 52.1803 17.4163 34.443 17.4163 33.9113H21.0884V54.7139ZM32.2457 56.2341C31.7059 56.2667 31.1342 56.289 30.4973 56.289C29.2143 56.289 27.9233 56.2027 26.6496 56.0321V46.3736C26.6496 44.5133 27.6895 42.8503 29.3635 42.0335C29.417 42.0074 29.4785 42.0074 29.5319 42.0335H29.5321C31.2059 42.8503 32.2458 44.5133 32.2458 46.3736V56.2341H32.2457ZM36.1087 55.7406C35.3928 55.8821 34.6703 55.9957 33.9439 56.0826V46.3736C33.9439 43.8589 32.5387 41.6112 30.2768 40.5073C29.7497 40.2501 29.1452 40.2501 28.6185 40.5073C26.3566 41.6112 24.9513 43.8589 24.9513 46.3736V55.7527C24.2235 55.6105 23.5013 55.441 22.7865 55.2427V36.452H36.1087V55.7406ZM36.1087 34.7538H22.7866C22.7866 34.0942 22.7866 29.1483 22.7866 28.3392H36.1087V34.7538ZM36.6079 26.641H22.2874C21.2444 25.5033 21.068 23.8087 21.8915 22.4969C22.6905 21.224 23.9327 20.2185 25.5839 19.5083C27.1654 18.8281 28.3838 17.9958 29.2078 17.0336H29.6874C30.511 17.9957 31.7297 18.828 33.3113 19.5083C34.9625 20.2185 36.2048 21.224 37.0037 22.4969C37.8272 23.8087 37.6509 25.5033 36.6079 26.641ZM41.4789 54.117C40.2867 54.6098 39.057 55.0228 37.8069 55.3506C37.8069 54.0945 37.8069 35.112 37.8069 33.9113H41.4789V54.117ZM46.9906 34.2167H43.1771C43.1771 31.7811 43.1771 35.0908 43.1771 31.2262H46.9906V34.2167ZM42.6098 28.2558C42.8743 27.7557 43.2861 27.3605 43.8338 27.0809C44.3331 26.8259 44.7514 26.527 45.0839 26.1885C45.4162 26.527 45.8346 26.8258 46.334 27.0809C46.8816 27.3605 47.2934 27.7557 47.5579 28.2558C47.7544 28.6276 47.6509 29.1374 47.4182 29.5279H42.7499C42.5168 29.1373 42.4133 28.6276 42.6098 28.2558ZM48.6888 49.8046V46.0566C51.3352 44.7925 53.7429 43.1284 55.863 41.0985C54.0741 44.4314 51.6235 47.4035 48.6888 49.8046Z" fill="white"/>
<path d="M25.6926 33.182C26.1616 33.182 26.5417 32.8018 26.5417 32.3329V30.7582C26.5417 30.2892 26.1616 29.9091 25.6926 29.9091C25.2236 29.9091 24.8435 30.2892 24.8435 30.7582V32.3329C24.8435 32.8018 25.2236 33.182 25.6926 33.182Z" fill="white"/>
<path d="M29.4476 33.182C29.9166 33.182 30.2967 32.8018 30.2967 32.3329V30.7582C30.2967 30.2892 29.9166 29.9091 29.4476 29.9091C28.9785 29.9091 28.5985 30.2892 28.5985 30.7582V32.3329C28.5986 32.8018 28.9787 33.182 29.4476 33.182Z" fill="white"/>
<path d="M33.2027 33.182C33.6717 33.182 34.0518 32.8018 34.0518 32.3329V30.7582C34.0518 30.2892 33.6717 29.9091 33.2027 29.9091C32.7337 29.9091 32.3536 30.2892 32.3536 30.7582V32.3329C32.3536 32.8018 32.7338 33.182 33.2027 33.182Z" fill="white"/>
</svg>
