<svg width="78" height="77" viewBox="0 0 78 77" fill="none" xmlns="http://www.w3.org/2000/svg">
<path d="M76.137 51.8167C75.2925 51.2204 74.1993 51.321 73.4781 52.0614C70.8866 54.7221 67.9212 56.9195 64.6461 58.6124V55.1905C64.6461 54.5679 64.1414 54.0631 63.5187 54.0631C62.8959 54.0631 62.3913 54.5679 62.3913 55.1905V67.8174C60.784 68.9443 59.0878 69.948 57.328 70.8141V47.6662H62.3913V49.9293C62.3913 50.5519 62.8959 51.0567 63.5187 51.0567C64.1414 51.0567 64.6461 50.5519 64.6461 49.9293C64.6461 48.9683 64.6461 41.6539 64.6461 40.7144C66.5602 38.1161 65.1767 35.2725 62.5449 33.9288C61.4219 33.3555 61.2858 32.8809 60.9871 32.6129V30.3954C60.9871 29.7728 60.4825 29.268 59.8597 29.268C59.237 29.268 58.7323 29.7728 58.7323 30.3954V32.6128C58.4338 32.8805 58.2973 33.3552 57.1746 33.9287C54.5273 35.2802 53.1652 38.1238 55.0732 40.7142V42.7509H50.1978V36.9496C52.3246 34.6975 52.6964 31.2892 51.0411 28.6517C49.7325 26.5667 47.7403 24.938 45.1197 23.8108C43.2975 23.027 41.9353 22.1015 41.0713 21.0604C40.8428 20.7848 40.5502 20.5818 40.226 20.4627V18.3223C41.3923 18.1359 42.4103 17.4566 43.0292 16.4451C43.3542 15.914 43.187 15.22 42.6559 14.895C42.1251 14.5702 41.431 14.7372 41.1058 15.2683C40.8253 15.7267 40.3593 16.0311 39.8277 16.1034C39.3585 16.1672 38.89 16.0442 38.5116 15.7566C38.1336 15.4691 37.8903 15.0515 37.8263 14.5808C37.7624 14.1105 37.8855 13.6433 38.1726 13.2655C38.5495 12.7698 38.453 12.0625 37.9574 11.6857C37.4618 11.309 36.7544 11.4053 36.3775 11.9009C35.726 12.7579 35.4472 13.8174 35.5919 14.8842C35.7369 15.9516 36.289 16.8988 37.1463 17.551C37.4045 17.7475 37.6814 17.9091 37.9709 18.0364V20.4624C37.6468 20.5815 37.3543 20.7844 37.126 21.0598C36.2616 22.1012 34.8994 23.0267 33.0772 23.8105C30.4566 24.9377 28.4644 26.5664 27.1559 28.6514C25.5005 31.2887 25.8723 34.6971 27.9991 36.9493V42.7506H23.1235V40.7138C23.9404 39.6052 24.3967 37.9201 23.6152 36.4425C22.3243 34.0008 20.567 34.1196 19.6919 32.8685C19.6254 32.7733 19.5488 32.6879 19.4646 32.6125V30.3949C19.4646 29.7723 18.96 29.2675 18.3372 29.2675C17.7144 29.2675 17.2098 29.7723 17.2098 30.3949V32.6123C16.9107 32.8806 16.7749 33.3549 15.6519 33.9282C15.4676 34.0223 15.2931 34.1256 15.1231 34.2329C14.7633 32.2213 14.5805 30.1726 14.5805 28.1191C14.5805 27.3391 14.6094 26.5269 14.6665 25.7051C14.7098 25.084 14.2413 24.5454 13.6202 24.5023C12.9968 24.4594 12.4603 24.9277 12.4171 25.5488C12.3566 26.4224 12.3257 27.2871 12.3257 28.1191C12.3257 30.8324 12.6238 33.5386 13.2122 36.1711C12.3223 37.6534 12.5386 39.3388 13.5509 40.7145V63.5979C-4.42529 45.7046 -0.431743 15.0885 22.4707 2.84297C17.8529 7.66598 14.6601 13.6134 13.2074 20.1209C13.0716 20.7285 13.4544 21.3311 14.0621 21.4668C14.6697 21.6027 15.2723 21.2197 15.4081 20.6121C16.8586 14.1135 20.1601 8.20969 24.9555 3.53895C26.6257 1.91234 24.7187 -0.802733 22.6294 0.226957C15.9555 3.51716 10.3158 8.58278 6.32047 14.8759C-10.6621 41.6238 8.54746 76.9738 40.4925 76.9726C55.9173 76.9726 69.9762 68.2082 76.7901 54.3875C77.2441 53.4663 76.9754 52.4091 76.137 51.8167V51.8167ZM20.8695 69.2979C19.0876 68.2288 17.3917 67.0141 15.8064 65.6705V47.6662H20.8695V69.2979ZM20.8695 45.4114H15.8064V41.4409H20.8695V45.4114ZM21.4371 39.1861H15.2397C14.9437 38.6899 14.7841 38.0061 15.0532 37.4973C15.8825 35.9263 17.0269 36.0874 18.3379 34.7523C19.6468 36.0851 20.7912 35.9246 21.6227 37.4973C21.8837 37.9906 21.7464 38.6673 21.4371 39.1861V39.1861ZM27.9999 72.6264C26.3301 72.0486 24.6974 71.353 23.1243 70.549C23.1243 69.2625 23.1243 45.7119 23.1243 45.006H27.9999V72.6264ZM42.8139 74.6449C42.0972 74.6882 41.3381 74.7178 40.4925 74.7178C38.789 74.7178 37.0749 74.6032 35.3838 74.3767V61.5526C35.3838 59.0827 36.7644 56.8747 38.9871 55.7901C39.0582 55.7555 39.1398 55.7555 39.2107 55.7901H39.2109C41.4334 56.8747 42.8141 59.0827 42.8141 61.5526V74.6449H42.8139ZM47.943 73.9896C46.9925 74.1775 46.0332 74.3283 45.0687 74.4438V61.5526C45.0687 58.2139 43.2029 55.2294 40.1997 53.7638C39.4998 53.4223 38.6973 53.4223 37.998 53.7638C34.9947 55.2294 33.1288 58.2139 33.1288 61.5526V74.0057C32.1626 73.8169 31.2037 73.5919 30.2545 73.3285V48.3794H47.943V73.9896ZM47.943 46.1246H30.2547C30.2547 45.2488 30.2547 38.6819 30.2547 37.6077H47.943V46.1246ZM48.6057 35.3529H29.5919C28.207 33.8424 27.9728 31.5924 29.0663 29.8506C30.1271 28.1606 31.7764 26.8254 33.9688 25.8825C36.0686 24.9794 37.6864 23.8744 38.7804 22.5968H39.4171C40.5107 23.8742 42.1288 24.9792 44.2287 25.8825C46.4211 26.8254 48.0706 28.1606 49.1313 29.8506C50.2247 31.5924 49.9906 33.8424 48.6057 35.3529ZM55.0732 71.8339C53.4902 72.4882 51.8576 73.0366 50.1978 73.4718C50.1978 71.804 50.1978 46.6002 50.1978 45.006H55.0732V71.8339ZM62.3913 45.4114H57.328C57.328 42.1776 57.328 46.5721 57.328 41.4409H62.3913V45.4114ZM56.5748 37.497C56.9259 36.833 57.4726 36.3082 58.1999 35.9369C58.8628 35.5984 59.4182 35.2016 59.8597 34.7521C60.3009 35.2016 60.8565 35.5983 61.5196 35.9369C62.2467 36.3082 62.7934 36.833 63.1445 37.497C63.4055 37.9906 63.2681 38.6675 62.959 39.1859H56.7607C56.4512 38.6673 56.3138 37.9906 56.5748 37.497V37.497ZM64.6461 66.1082V61.1317C68.1598 59.4534 71.3566 57.2439 74.1715 54.5488C71.7963 58.9739 68.5427 62.9201 64.6461 66.1082Z" fill="#38B000"/>
<path d="M34.1131 44.0376C34.7359 44.0376 35.2405 43.5329 35.2405 42.9102V40.8194C35.2405 40.1968 34.7359 39.692 34.1131 39.692C33.4904 39.692 32.9857 40.1968 32.9857 40.8194V42.9102C32.9857 43.5329 33.4904 44.0376 34.1131 44.0376Z" fill="#38B000"/>
<path d="M39.0987 44.0376C39.7215 44.0376 40.2261 43.5329 40.2261 42.9102V40.8194C40.2261 40.1968 39.7215 39.692 39.0987 39.692C38.476 39.692 37.9713 40.1968 37.9713 40.8194V42.9102C37.9715 43.5329 38.4761 44.0376 39.0987 44.0376Z" fill="#38B000"/>
<path d="M44.0846 44.0376C44.7074 44.0376 45.212 43.5329 45.212 42.9102V40.8194C45.212 40.1968 44.7074 39.692 44.0846 39.692C43.4618 39.692 42.9572 40.1968 42.9572 40.8194V42.9102C42.9572 43.5329 43.462 44.0376 44.0846 44.0376Z" fill="#38B000"/>
</svg>
